<svg xmlns="http://www.w3.org/2000/svg" style="display:none">
  <symbol id="icon-home" viewBox="0 0 24 24">
    <path d="M4 10.8 12 4.5l8 6.3" fill="none" stroke="currentColor" stroke-width="1.9" stroke-linecap="round" stroke-linejoin="round"></path>
    <path d="M6.2 10.9V19a1.1 1.1 0 0 0 1.1 1.1h9.4a1.1 1.1 0 0 0 1.1-1.1v-8.1" fill="none" stroke="currentColor" stroke-width="1.9" stroke-linecap="round" stroke-linejoin="round"></path>
    <path d="M10 20.1v-4.3h4v4.3" fill="none" stroke="currentColor" stroke-width="1.9" stroke-linecap="round" stroke-linejoin="round"></path>
  </symbol>
  <symbol id="icon-issue" viewBox="0 0 24 24">
    <path d="M12 4.4 20 18a1.2 1.2 0 0 1-1 1.8H5A1.2 1.2 0 0 1 4 18L12 4.4z" fill="none" stroke="currentColor" stroke-width="1.9" stroke-linecap="round" stroke-linejoin="round"></path>
    <path d="M12 9v4.9" fill="none" stroke="currentColor" stroke-width="1.9" stroke-linecap="round"></path>
    <circle cx="12" cy="16.8" r="1" fill="currentColor"></circle>
  </symbol>
  <symbol id="icon-route" viewBox="0 0 24 24">
    <circle cx="7.2" cy="6.8" r="2.2" fill="none" stroke="currentColor" stroke-width="1.9"></circle>
    <circle cx="16.8" cy="17.2" r="2.2" fill="none" stroke="currentColor" stroke-width="1.9"></circle>
    <path d="M9.6 7.9h4.8a2.6 2.6 0 1 1 0 5.2h-4a2.6 2.6 0 1 0 0 5.2h4.1" fill="none" stroke="currentColor" stroke-width="1.9" stroke-linecap="round" stroke-linejoin="round"></path>
  </symbol>
  <symbol id="icon-locate" viewBox="0 0 24 24">
    <circle cx="12" cy="12" r="3.1" fill="none" stroke="currentColor" stroke-width="1.9"></circle>
    <circle cx="12" cy="12" r="7.1" fill="none" stroke="currentColor" stroke-width="1.9"></circle>
    <path d="M12 2.8v2.4M12 18.8v2.4M2.8 12h2.4M18.8 12h2.4" fill="none" stroke="currentColor" stroke-width="1.9" stroke-linecap="round"></path>
  </symbol>
  <symbol id="icon-place" viewBox="0 0 24 24">
    <path d="M12 3.8a6 6 0 0 0-6 6c0 4.9 6 10.4 6 10.4s6-5.5 6-10.4a6 6 0 0 0-6-6z" fill="none" stroke="currentColor" stroke-width="1.9" stroke-linecap="round" stroke-linejoin="round"></path>
    <circle cx="12" cy="9.8" r="2.2" fill="none" stroke="currentColor" stroke-width="1.9"></circle>
  </symbol>
  <symbol id="icon-star" viewBox="0 0 24 24">
    <path d="m12 4.1 2.3 4.6 5.1.8-3.7 3.6.9 5.1-4.6-2.4-4.6 2.4.9-5.1-3.7-3.6 5.1-.8z" fill="none" stroke="currentColor" stroke-width="1.9" stroke-linecap="round" stroke-linejoin="round"></path>
  </symbol>
  <symbol id="icon-bus" viewBox="0 0 24 24">
    <rect x="4" y="5" width="16" height="14" rx="2" fill="none" stroke="currentColor" stroke-width="1.9" stroke-linecap="round" stroke-linejoin="round"></rect>
    <path d="M4 11h16" fill="none" stroke="currentColor" stroke-width="1.9" stroke-linecap="round" stroke-linejoin="round"></path>
    <path d="M8 15h.01" fill="none" stroke="currentColor" stroke-width="1.9" stroke-linecap="round" stroke-linejoin="round"></path>
    <path d="M16 15h.01" fill="none" stroke="currentColor" stroke-width="1.9" stroke-linecap="round" stroke-linejoin="round"></path>
    <path d="M6 19v2" fill="none" stroke="currentColor" stroke-width="1.9" stroke-linecap="round" stroke-linejoin="round"></path>
    <path d="M18 19v2" fill="none" stroke="currentColor" stroke-width="1.9" stroke-linecap="round" stroke-linejoin="round"></path>
  </symbol>
  <symbol id="icon-time" viewBox="0 0 24 24">
    <circle cx="12" cy="12" r="9" fill="none" stroke="currentColor" stroke-width="1.9" stroke-linecap="round" stroke-linejoin="round"></circle>
    <path d="M12 6v6l4 2" fill="none" stroke="currentColor" stroke-width="1.9" stroke-linecap="round" stroke-linejoin="round"></path>
  </symbol>
  <symbol id="icon-flag" viewBox="0 0 24 24">
    <path d="M4 15s1-1 4-1 5 2 8 2 4-1 4-1V3s-1 1-4 1-5-2-8-2-4 1-4 1z" fill="none" stroke="currentColor" stroke-width="1.9" stroke-linecap="round" stroke-linejoin="round"></path>
    <line x1="4" y1="22" x2="4" y2="15" fill="none" stroke="currentColor" stroke-width="1.9" stroke-linecap="round" stroke-linejoin="round"></line>
  </symbol>
  <symbol id="icon-check" viewBox="0 0 24 24">
    <polyline points="20 6 9 17 4 12" fill="none" stroke="currentColor" stroke-width="1.9" stroke-linecap="round" stroke-linejoin="round"></polyline>
  </symbol>
  <symbol id="icon-list" viewBox="0 0 24 24">
    <line x1="8" y1="6" x2="21" y2="6" fill="none" stroke="currentColor" stroke-width="1.9" stroke-linecap="round" stroke-linejoin="round"></line>
    <line x1="8" y1="12" x2="21" y2="12" fill="none" stroke="currentColor" stroke-width="1.9" stroke-linecap="round" stroke-linejoin="round"></line>
    <line x1="8" y1="18" x2="21" y2="18" fill="none" stroke="currentColor" stroke-width="1.9" stroke-linecap="round" stroke-linejoin="round"></line>
    <line x1="3" y1="6" x2="3.01" y2="6" fill="none" stroke="currentColor" stroke-width="1.9" stroke-linecap="round" stroke-linejoin="round"></line>
    <line x1="3" y1="12" x2="3.01" y2="12" fill="none" stroke="currentColor" stroke-width="1.9" stroke-linecap="round" stroke-linejoin="round"></line>
    <line x1="3" y1="18" x2="3.01" y2="18" fill="none" stroke="currentColor" stroke-width="1.9" stroke-linecap="round" stroke-linejoin="round"></line>
  </symbol>
  <symbol id="icon-play" viewBox="0 0 24 24">
    <polygon points="5 3 19 12 5 21 5 3" fill="none" stroke="currentColor" stroke-width="1.9" stroke-linecap="round" stroke-linejoin="round"></polygon>
  </symbol>
  <symbol id="icon-search" viewBox="0 0 24 24">
    <circle cx="11" cy="11" r="8" fill="none" stroke="currentColor" stroke-width="1.9" stroke-linecap="round" stroke-linejoin="round"></circle>
    <line x1="21" y1="21" x2="16.65" y2="16.65" fill="none" stroke="currentColor" stroke-width="1.9" stroke-linecap="round" stroke-linejoin="round"></line>
  </symbol>
</svg>
