<svg xmlns="http://www.w3.org/2000/svg" style="display:none">
  <symbol id="icon-home" viewBox="0 0 24 24">
    <path d="M4 10.8 12 4.5l8 6.3" fill="none" stroke="currentColor" stroke-width="1.9" stroke-linecap="round" stroke-linejoin="round"></path>
    <path d="M6.2 10.9V19a1.1 1.1 0 0 0 1.1 1.1h9.4a1.1 1.1 0 0 0 1.1-1.1v-8.1" fill="none" stroke="currentColor" stroke-width="1.9" stroke-linecap="round" stroke-linejoin="round"></path>
    <path d="M10 20.1v-4.3h4v4.3" fill="none" stroke="currentColor" stroke-width="1.9" stroke-linecap="round" stroke-linejoin="round"></path>
  </symbol>
  <symbol id="icon-issue" viewBox="0 0 24 24">
    <path d="M12 4.4 20 18a1.2 1.2 0 0 1-1 1.8H5A1.2 1.2 0 0 1 4 18L12 4.4z" fill="none" stroke="currentColor" stroke-width="1.9" stroke-linecap="round" stroke-linejoin="round"></path>
    <path d="M12 9v4.9" fill="none" stroke="currentColor" stroke-width="1.9" stroke-linecap="round"></path>
    <circle cx="12" cy="16.8" r="1" fill="currentColor"></circle>
  </symbol>
  <symbol id="icon-route" viewBox="0 0 24 24">
    <circle cx="7.2" cy="6.8" r="2.2" fill="none" stroke="currentColor" stroke-width="1.9"></circle>
    <circle cx="16.8" cy="17.2" r="2.2" fill="none" stroke="currentColor" stroke-width="1.9"></circle>
    <path d="M9.6 7.9h4.8a2.6 2.6 0 1 1 0 5.2h-4a2.6 2.6 0 1 0 0 5.2h4.1" fill="none" stroke="currentColor" stroke-width="1.9" stroke-linecap="round" stroke-linejoin="round"></path>
  </symbol>
  <symbol id="icon-locate" viewBox="0 0 24 24">
    <circle cx="12" cy="12" r="3.1" fill="none" stroke="currentColor" stroke-width="1.9"></circle>
    <circle cx="12" cy="12" r="7.1" fill="none" stroke="currentColor" stroke-width="1.9"></circle>
    <path d="M12 2.8v2.4M12 18.8v2.4M2.8 12h2.4M18.8 12h2.4" fill="none" stroke="currentColor" stroke-width="1.9" stroke-linecap="round"></path>
  </symbol>
  <symbol id="icon-place" viewBox="0 0 24 24">
    <path d="M12 3.8a6 6 0 0 0-6 6c0 4.9 6 10.4 6 10.4s6-5.5 6-10.4a6 6 0 0 0-6-6z" fill="none" stroke="currentColor" stroke-width="1.9" stroke-linecap="round" stroke-linejoin="round"></path>
    <circle cx="12" cy="9.8" r="2.2" fill="none" stroke="currentColor" stroke-width="1.9"></circle>
  </symbol>
  <symbol id="icon-star" viewBox="0 0 24 24">
    <path d="m12 4.1 2.3 4.6 5.1.8-3.7 3.6.9 5.1-4.6-2.4-4.6 2.4.9-5.1-3.7-3.6 5.1-.8z" fill="none" stroke="currentColor" stroke-width="1.9" stroke-linecap="round" stroke-linejoin="round"></path>
  </symbol>
</svg>

